. 
  
http://www.torrenting.com/        :     Greatest Movie Tracker on The Net!!!
 
http://www.Torrenting.com          :     Once & For all ;)


               www . Torrenting . Com 

(((((((((((((= Enjoy No RAR releases =))))))))))))))))))))


...................................NFO:....................................

.[IMG]http://img143.imageshack.us/img143/8186/redstatedvd.jpg[/IMG]


[color=blue][size=5][b]Red.State.2011.VOD.HDRip.XVID.AC3.5-1.HQ.Hive-CM8[/b][/size][/color]


[b]Thx Hive

CM8 Doing It Right The First Time :D


Source: VOD HD-Stream

Encode:
Stream had very good quality, added brightness, sharpness, rgb, denoise
got really nice, looks better than a dvdrip, dont even know if a bdrip is necessary afterwards.
enjoy

Video: 720x384 @bitrate 1800 2pass
Audio: English AC3 5.1 @384
Sample: yes included[/b]


[url]http://www.imdb.com/title/tt0873886/[/url]


General
Complete name                    : Red.State.2011.VOD.HDRip.XVID.AC3.5-1.HQ.Hive-CM8.avi
Format                           : AVI
Format/Info                      : Audio Video Interleave
File size                        : 1.36 GiB
Duration                         : 1h 28mn
Overall bit rate                 : 2 193 Kbps
Writing application              : Nandub v1.0rc2
Writing library                  : Nandub build 1853/release

Video
ID                               : 0
Format                           : MPEG-4 Visual
Format profile                   : Advanced Simple@L5
Format settings, BVOP            : 1
Format settings, QPel            : Yes
Format settings, GMC             : No warppoints
Format settings, Matrix          : Default (H.263)
Muxing mode                      : Packed bitstream
Codec ID                         : XVID
Codec ID/Hint                    : XviD
Duration                         : 1h 28mn
Bit rate                         : 1 800 Kbps
Width                            : 720 pixels
Height                           : 384 pixels
Display aspect ratio             : 1.875
Frame rate                       : 23.976 fps
Color space                      : YUV
Chroma subsampling               : 4:2:0
Bit depth                        : 8 bits
Scan type                        : Progressive
Compression mode                 : Lossy
Bits/(Pixel*Frame)               : 0.271
Stream size                      : 1.11 GiB (82%)
Writing library                  : XviD 1.2.1 (UTC 2008-12-04)

Audio
ID                               : 1
Format                           : AC-3
Format/Info                      : Audio Coding 3
Mode extension                   : CM (complete main)
Codec ID                         : 2000
Duration                         : 1h 28mn
Bit rate mode                    : Constant
Bit rate                         : 384 Kbps
Channel(s)                       : 6 channels
Channel positions                : Front: L C R, Side: L R, LFE
Sampling rate                    : 48.0 KHz
Bit depth                        : 16 bits
Compression mode                 : Lossy
Stream size                      : 243 MiB (18%)
Alignment                        : Split accross interleaves
Interleave, duration             : 42 ms (1.00 video frame)
Interleave, preload duration     : 500 ms


Plot:
Set in Middle America, a group of teens receive an online invitation for sex,
though they soon encounter fundamentalists with a much more sinister agenda.


Cast:
Michael Parks    ...    Abin Cooper
Melissa Leo	 ... 	Sara
John Goodman     ...    Joseph Keenan
Michael Angarano ...    Travis
Nicholas Braun   ...    Billy-Ray
Ronnie Connell   ...    Randy


[IMG]http://img202.imageshack.us/img202/3152/rerererererererere.png[/IMG]
[img]http://img33.imageshack.us/img33/1927/59452499.png[/img]
[img]http://img508.imageshack.us/img508/6195/rerererererere.png[/img]
[img]http://img42.imageshack.us/img42/5403/rereh.png[/img]
[img]http://img13.imageshack.us/img13/903/rerere.png[/img]
[img]http://img825.imageshack.us/img825/5463/rererere.png[/img]
[img]http://img33.imageshack.us/img33/5989/rerererere.png[/img]
[img]http://img11.imageshack.us/img11/1946/rererererererere.png[/img]
[img]http://img17.imageshack.us/img17/3254/rererererere.png[/img]



Greetz

ViSiON,SiC,SANTi,3LT0N,YanKeeS,MAGNET,THC,T0XiC,LKRG,FANTASIA-PLAY,FANTASIA-M,BHRG,FLAWL3SS,
D2U,WBZ,NOVA,Vik,Rapeseed,SAFC,goldadvance,MEMORY100,scumbag,KaN1vE,Unevano,Pinnz,Wayne
Mr Hive,cedrict wink,and all P2P groups
Great Work Guys :D

FYS

LOOKING FOR ANYTHING YOU WANT TO LOOK AND SOUND BETTER

CM8@hushmail.com